# xmcd
#
# Track frame offsets:
#	150
#	15614
#	31277
#	43110
#	55423
#	68455
#	80468
#	92421
#	108274
#	121808
#	135001
#	150494
#	163297
#	177121
#	190833
#	205595
#
# Disc length: 2946 seconds
#
# Revision: 0
# Processed by: cddbd v1.5.1PL2 Copyright (c) Steve Scherf et al.
# Submitted via: audiograbber 1.83.01
#
DISCID=bc0b8010
DTITLE=Jimmie Rodgers - My Rough and Rowdy Ways
DYEAR=1900
DGENRE=Country
TTITLE0=01 - Last Blue Yodel (trim 3.24)
TTITLE1=02 - Mississippi Moon (trim 3.26)
TTITLE2=03 - My Rough and Rowdy Ways (trim 2.35)
TTITLE3=04 - Blue Yodel No. 9 (trim 2.42)
TTITLE4=05 - My Blue Eyed Jane (trim 2.51)
TTITLE5=06 - The One Rose (trim 2.38)
TTITLE6=07 - Southern Cannonball (trim 2.37)
TTITLE7=08 - Long Tall Mama Blues (trim 3.29)
TTITLE8=09 - In The Jailhouse Now No.2 (trim 2.58)
TTITLE9=10 - Peach Picking Time Down In Georgia (trim 2.53)
TTITLE10=11 - Blue Yodel No.1 (trim 3.24)
TTITLE11=12 - Travelin' Blues (trim 2.48)
TTITLE12=13 - Mule Skinner Blues (trim 3.02)
TTITLE13=14 - My Carolins Sunshine (trim 3.00)
TTITLE14=15 - The Brakesman's Blues (trim 3.14)
TTITLE15=16 - Away Out on the Mountain (trim 3.24)
EXTD=RCA LPM-2112
EXTT0=
EXTT1=
EXTT2=
EXTT3=
EXTT4=
EXTT5=
EXTT6=
EXTT7=
EXTT8=
EXTT9=
EXTT10=
EXTT11=
EXTT12=
EXTT13=
EXTT14=
EXTT15=
PLAYORDER=
